<?xml version="1.0" encoding="UTF-8"?>
<svg xmlns="http://www.w3.org/2000/svg" xmlns:xlink="http://www.w3.org/1999/xlink" width="240pt" height="240pt" viewBox="0 0 240 240">
<path fill-rule="nonzero" fill="rgb(25.881958%, 25.881958%, 25.881958%)" fill-opacity="0.7002" d="M 0 120.5 C 0 87.640625 26.640625 61 59.5 61 C 92.359375 61 119 87.640625 119 120.5 C 119 153.359375 92.359375 180 59.5 180 C 26.640625 180 0 153.359375 0 120.5 Z M 0 120.5 "/>
<path fill-rule="nonzero" fill="rgb(25.881958%, 25.881958%, 25.881958%)" fill-opacity="0.7002" d="M 177.523438 151.59375 L 177.542969 173.636719 C 177.359375 176.917969 174.554688 179.429688 171.273438 179.246094 C 171.050781 179.234375 170.832031 179.210938 170.613281 179.171875 C 138.210938 173.714844 116.367188 143.019531 121.828125 110.613281 C 126.039062 85.621094 145.621094 66.039062 170.613281 61.828125 C 173.855469 61.28125 176.925781 63.464844 177.46875 66.707031 C 177.507812 66.921875 177.53125 67.144531 177.542969 67.363281 L 177.523438 120.5 Z M 177.523438 151.59375 "/>
<path fill-rule="nonzero" fill="rgb(25.881958%, 25.881958%, 25.881958%)" fill-opacity="0.21" d="M 183.476562 89.40625 L 183.457031 67.363281 C 183.640625 64.082031 186.445312 61.570312 189.726562 61.753906 C 189.949219 61.765625 190.167969 61.789062 190.386719 61.828125 C 222.789062 67.285156 244.632812 97.980469 239.171875 130.386719 C 234.960938 155.378906 215.378906 174.960938 190.386719 179.171875 C 187.144531 179.71875 184.074219 177.535156 183.53125 174.292969 C 183.492188 174.078125 183.46875 173.855469 183.457031 173.636719 L 183.476562 120.5 Z M 183.476562 89.40625 "/>
</svg>
