<?xml version="1.0" encoding="UTF-8"?>
<svg xmlns="http://www.w3.org/2000/svg" xmlns:xlink="http://www.w3.org/1999/xlink" width="240pt" height="240pt" viewBox="0 0 240 240">
<path fill-rule="nonzero" fill="rgb(25.881958%, 25.881958%, 25.881958%)" fill-opacity="0.7002" d="M 115.382812 197.863281 L 115.414062 227.234375 C 115.128906 233.855469 109.53125 238.992188 102.910156 238.710938 C 102.464844 238.691406 102.023438 238.648438 101.582031 238.578125 C 82.628906 235.632812 64.660156 228.191406 49.175781 216.871094 C 43.824219 212.960938 42.660156 205.453125 46.570312 200.101562 C 46.835938 199.742188 47.117188 199.398438 47.417969 199.070312 L 93.117188 153.316406 C 95.390625 150.496094 99.363281 149.71875 102.53125 151.476562 C 104.925781 152.804688 107.460938 153.855469 110.09375 154.609375 C 113.578125 155.605469 115.835938 158.964844 115.453125 162.566406 Z M 115.382812 197.863281 "/>
<path fill-rule="nonzero" fill="rgb(25.881958%, 25.881958%, 25.881958%)" fill-opacity="0.21" d="M 61.679688 171.792969 L 40.929688 192.582031 C 36.050781 197.0625 28.457031 196.738281 23.976562 191.855469 C 23.675781 191.527344 23.390625 191.183594 23.128906 190.824219 C 11.808594 175.339844 4.367188 157.371094 1.421875 138.417969 C 0.40625 131.867188 4.890625 125.734375 11.4375 124.71875 C 11.878906 124.648438 12.320312 124.605469 12.765625 124.585938 L 77.433594 124.546875 C 81.035156 124.164062 84.394531 126.421875 85.390625 129.90625 C 86.144531 132.539062 87.195312 135.074219 88.523438 137.46875 C 90.28125 140.636719 89.503906 144.609375 86.683594 146.882812 Z M 61.679688 171.792969 "/>
<path fill-rule="nonzero" fill="rgb(25.881958%, 25.881958%, 25.881958%)" fill-opacity="0.21" d="M 42.136719 115.382812 L 12.765625 115.414062 C 6.144531 115.128906 1.007812 109.53125 1.289062 102.910156 C 1.308594 102.464844 1.351562 102.023438 1.421875 101.582031 C 4.367188 82.628906 11.808594 64.660156 23.128906 49.175781 C 27.039062 43.824219 34.546875 42.660156 39.898438 46.570312 C 40.257812 46.835938 40.601562 47.117188 40.929688 47.417969 L 86.683594 93.117188 C 89.503906 95.390625 90.28125 99.363281 88.523438 102.53125 C 87.195312 104.925781 86.144531 107.460938 85.390625 110.09375 C 84.394531 113.578125 81.035156 115.835938 77.433594 115.453125 Z M 42.136719 115.382812 "/>
<path fill-rule="nonzero" fill="rgb(25.881958%, 25.881958%, 25.881958%)" fill-opacity="0.21" d="M 68.207031 61.679688 L 47.417969 40.929688 C 42.9375 36.050781 43.261719 28.457031 48.144531 23.976562 C 48.472656 23.675781 48.816406 23.390625 49.175781 23.128906 C 64.660156 11.808594 82.628906 4.367188 101.582031 1.421875 C 108.132812 0.40625 114.265625 4.890625 115.28125 11.4375 C 115.351562 11.878906 115.394531 12.320312 115.414062 12.765625 L 115.453125 77.433594 C 115.835938 81.035156 113.578125 84.394531 110.09375 85.390625 C 107.460938 86.144531 104.925781 87.195312 102.53125 88.523438 C 99.363281 90.28125 95.390625 89.503906 93.117188 86.683594 Z M 68.207031 61.679688 "/>
<path fill-rule="nonzero" fill="rgb(25.881958%, 25.881958%, 25.881958%)" fill-opacity="0.21" d="M 124.617188 42.136719 L 124.585938 12.765625 C 124.871094 6.144531 130.46875 1.007812 137.089844 1.289062 C 137.535156 1.308594 137.976562 1.351562 138.417969 1.421875 C 157.371094 4.367188 175.339844 11.808594 190.824219 23.128906 C 196.175781 27.039062 197.339844 34.546875 193.429688 39.898438 C 193.164062 40.257812 192.882812 40.601562 192.582031 40.929688 L 146.882812 86.683594 C 144.609375 89.503906 140.636719 90.28125 137.46875 88.523438 C 135.074219 87.195312 132.539062 86.144531 129.90625 85.390625 C 126.421875 84.394531 124.164062 81.035156 124.546875 77.433594 Z M 124.617188 42.136719 "/>
<path fill-rule="nonzero" fill="rgb(25.881958%, 25.881958%, 25.881958%)" fill-opacity="0.21" d="M 178.320312 68.207031 L 199.070312 47.417969 C 203.949219 42.9375 211.542969 43.261719 216.023438 48.144531 C 216.324219 48.472656 216.609375 48.816406 216.871094 49.175781 C 228.191406 64.660156 235.632812 82.628906 238.578125 101.582031 C 239.59375 108.132812 235.109375 114.265625 228.5625 115.28125 C 228.121094 115.351562 227.679688 115.394531 227.234375 115.414062 L 162.566406 115.453125 C 158.964844 115.835938 155.605469 113.578125 154.609375 110.09375 C 153.855469 107.460938 152.804688 104.925781 151.476562 102.53125 C 149.71875 99.363281 150.496094 95.390625 153.316406 93.117188 Z M 178.320312 68.207031 "/>
<path fill-rule="nonzero" fill="rgb(25.881958%, 25.881958%, 25.881958%)" fill-opacity="0.21" d="M 197.863281 124.617188 L 227.234375 124.585938 C 233.855469 124.871094 238.992188 130.46875 238.710938 137.089844 C 238.691406 137.535156 238.648438 137.976562 238.578125 138.417969 C 235.632812 157.371094 228.191406 175.339844 216.871094 190.824219 C 212.960938 196.175781 205.453125 197.339844 200.101562 193.429688 C 199.742188 193.164062 199.398438 192.882812 199.070312 192.582031 L 153.316406 146.882812 C 150.496094 144.609375 149.71875 140.636719 151.476562 137.46875 C 152.804688 135.074219 153.855469 132.539062 154.609375 129.90625 C 155.605469 126.421875 158.964844 124.164062 162.566406 124.546875 Z M 197.863281 124.617188 "/>
<path fill-rule="nonzero" fill="rgb(25.881958%, 25.881958%, 25.881958%)" fill-opacity="0.21" d="M 171.792969 178.320312 L 192.582031 199.070312 C 197.0625 203.949219 196.738281 211.542969 191.855469 216.023438 C 191.527344 216.324219 191.183594 216.609375 190.824219 216.871094 C 175.339844 228.191406 157.371094 235.632812 138.417969 238.578125 C 131.867188 239.59375 125.734375 235.109375 124.71875 228.5625 C 124.648438 228.121094 124.605469 227.679688 124.585938 227.234375 L 124.546875 162.566406 C 124.164062 158.964844 126.421875 155.605469 129.90625 154.609375 C 132.539062 153.855469 135.074219 152.804688 137.46875 151.476562 C 140.636719 149.71875 144.609375 150.496094 146.882812 153.316406 Z M 171.792969 178.320312 "/>
</svg>
