<?xml version="1.0" encoding="UTF-8"?>
<svg xmlns="http://www.w3.org/2000/svg" xmlns:xlink="http://www.w3.org/1999/xlink" width="240pt" height="240pt" viewBox="0 0 240 240">
<path fill-rule="nonzero" fill="rgb(25.881958%, 25.881958%, 25.881958%)" fill-opacity="0.7002" d="M 117 151.589844 L 117.019531 173.582031 C 116.835938 176.890625 114.003906 179.425781 110.695312 179.238281 C 110.472656 179.226562 110.25 179.203125 110.03125 179.167969 C 77.355469 173.660156 55.328125 142.707031 60.832031 110.03125 C 61.464844 106.285156 62.449219 102.609375 63.777344 99.050781 C 64.933594 95.945312 68.386719 94.367188 71.492188 95.523438 C 71.703125 95.601562 71.90625 95.691406 72.105469 95.789062 L 117 121.730469 Z M 117 151.589844 "/>
<path fill-rule="nonzero" fill="rgb(25.881958%, 25.881958%, 25.881958%)" fill-opacity="0.7002" d="M 94.140625 101.605469 L 75.085938 90.625 C 72.3125 88.8125 71.535156 85.09375 73.347656 82.320312 C 73.472656 82.132812 73.601562 81.957031 73.746094 81.785156 C 94.851562 56.238281 132.671875 52.640625 158.214844 73.746094 C 161.144531 76.164062 163.835938 78.855469 166.253906 81.785156 C 168.367188 84.339844 168.003906 88.121094 165.449219 90.230469 C 165.277344 90.371094 165.101562 90.503906 164.914062 90.625 L 120 116.535156 Z M 94.140625 101.605469 "/>
<path fill-rule="nonzero" fill="rgb(25.881958%, 25.881958%, 25.881958%)" fill-opacity="0.7002" d="M 148.859375 106.804688 L 167.894531 95.789062 C 170.851562 94.296875 174.460938 95.480469 175.957031 98.4375 C 176.058594 98.636719 176.144531 98.839844 176.222656 99.050781 C 187.792969 130.101562 172 164.652344 140.949219 176.222656 C 137.390625 177.550781 133.714844 178.535156 129.96875 179.167969 C 126.703125 179.714844 123.605469 177.515625 123.054688 174.246094 C 123.019531 174.027344 122.992188 173.804688 122.980469 173.582031 L 123 121.730469 Z M 148.859375 106.804688 "/>
</svg>
