<?xml version="1.0" encoding="UTF-8"?>
<svg xmlns="http://www.w3.org/2000/svg" xmlns:xlink="http://www.w3.org/1999/xlink" width="240pt" height="240pt" viewBox="0 0 240 240">
<path fill-rule="nonzero" fill="rgb(25.881958%, 25.881958%, 25.881958%)" fill-opacity="0.7002" d="M 117 151.355469 L 117.019531 173.582031 C 116.835938 176.890625 114.003906 179.425781 110.695312 179.238281 C 110.472656 179.226562 110.25 179.203125 110.03125 179.167969 C 77.355469 173.660156 55.328125 142.707031 60.832031 110.03125 C 65.082031 84.828125 84.828125 65.082031 110.03125 60.835938 C 113.296875 60.285156 116.394531 62.484375 116.945312 65.753906 C 116.980469 65.972656 117.007812 66.195312 117.019531 66.417969 L 117 120 Z M 117 151.355469 "/>
<path fill-rule="nonzero" fill="rgb(25.881958%, 25.881958%, 25.881958%)" fill-opacity="0.21" d="M 123 88.644531 L 122.980469 66.417969 C 123.164062 63.109375 125.996094 60.574219 129.304688 60.761719 C 129.527344 60.773438 129.75 60.796875 129.96875 60.835938 C 162.644531 66.339844 184.671875 97.292969 179.164062 129.96875 C 174.917969 155.171875 155.171875 174.917969 129.96875 179.167969 C 126.703125 179.714844 123.605469 177.515625 123.054688 174.246094 C 123.019531 174.027344 122.992188 173.804688 122.980469 173.582031 L 123 120 Z M 123 88.644531 "/>
</svg>
