<?xml version="1.0" encoding="UTF-8"?>
<svg xmlns="http://www.w3.org/2000/svg" xmlns:xlink="http://www.w3.org/1999/xlink" width="240pt" height="240pt" viewBox="0 0 240 240">
<path fill-rule="nonzero" fill="rgb(25.881958%, 25.881958%, 25.881958%)" fill-opacity="0.7002" d="M 115.382812 197.863281 L 115.414062 227.234375 C 115.128906 233.855469 109.53125 238.992188 102.910156 238.710938 C 102.464844 238.691406 102.023438 238.648438 101.582031 238.578125 C 93.058594 237.253906 84.703125 235.015625 76.660156 231.902344 C 70.480469 229.507812 67.410156 222.558594 69.804688 216.375 C 69.964844 215.960938 70.148438 215.554688 70.355469 215.160156 L 104.105469 156.707031 C 104.964844 154.722656 107.179688 153.710938 109.242188 154.355469 C 110.195312 154.652344 111.164062 154.914062 112.136719 155.132812 C 114.246094 155.601562 115.65625 157.589844 115.410156 159.734375 Z M 115.382812 197.863281 "/>
<path fill-rule="nonzero" fill="rgb(25.881958%, 25.881958%, 25.881958%)" fill-opacity="0.21" d="M 77.070312 185.125 L 62.410156 210.574219 C 58.855469 216.164062 51.4375 217.816406 45.847656 214.261719 C 45.46875 214.023438 45.109375 213.761719 44.761719 213.484375 C 38.042969 208.074219 31.925781 201.957031 26.515625 195.238281 C 22.363281 190.078125 23.179688 182.523438 28.339844 178.367188 C 28.6875 178.085938 29.050781 177.828125 29.425781 177.589844 L 87.882812 143.84375 C 89.617188 142.554688 92.042969 142.785156 93.507812 144.375 C 94.183594 145.109375 94.890625 145.816406 95.625 146.492188 C 97.214844 147.957031 97.445312 150.382812 96.15625 152.117188 Z M 77.070312 185.125 "/>
<path fill-rule="nonzero" fill="rgb(25.881958%, 25.881958%, 25.881958%)" fill-opacity="0.21" d="M 50.261719 154.933594 L 24.839844 169.644531 C 18.964844 172.710938 11.714844 170.429688 8.648438 164.554688 C 8.445312 164.160156 8.261719 163.753906 8.097656 163.339844 C 4.984375 155.296875 2.746094 146.941406 1.421875 138.417969 C 0.40625 131.867188 4.890625 125.734375 11.4375 124.71875 C 11.878906 124.648438 12.320312 124.605469 12.765625 124.585938 L 80.265625 124.589844 C 82.410156 124.34375 84.398438 125.753906 84.867188 127.863281 C 85.085938 128.835938 85.347656 129.804688 85.644531 130.757812 C 86.289062 132.820312 85.277344 135.035156 83.292969 135.894531 Z M 50.261719 154.933594 "/>
<path fill-rule="nonzero" fill="rgb(25.881958%, 25.881958%, 25.881958%)" fill-opacity="0.21" d="M 42.136719 115.382812 L 12.765625 115.414062 C 6.144531 115.128906 1.007812 109.53125 1.289062 102.910156 C 1.308594 102.464844 1.351562 102.023438 1.421875 101.582031 C 2.746094 93.058594 4.984375 84.703125 8.097656 76.660156 C 10.492188 70.480469 17.441406 67.410156 23.625 69.804688 C 24.039062 69.964844 24.445312 70.148438 24.839844 70.355469 L 83.292969 104.105469 C 85.277344 104.964844 86.289062 107.179688 85.644531 109.242188 C 85.347656 110.195312 85.085938 111.164062 84.867188 112.136719 C 84.398438 114.246094 82.410156 115.65625 80.265625 115.410156 Z M 42.136719 115.382812 "/>
<path fill-rule="nonzero" fill="rgb(25.881958%, 25.881958%, 25.881958%)" fill-opacity="0.21" d="M 54.875 77.070312 L 29.425781 62.410156 C 23.835938 58.855469 22.183594 51.4375 25.738281 45.847656 C 25.976562 45.46875 26.238281 45.109375 26.515625 44.761719 C 31.925781 38.042969 38.042969 31.925781 44.761719 26.515625 C 49.921875 22.363281 57.476562 23.179688 61.632812 28.339844 C 61.914062 28.6875 62.171875 29.050781 62.410156 29.425781 L 96.15625 87.882812 C 97.445312 89.617188 97.214844 92.042969 95.625 93.507812 C 94.890625 94.183594 94.183594 94.890625 93.507812 95.625 C 92.042969 97.214844 89.617188 97.445312 87.882812 96.15625 Z M 54.875 77.070312 "/>
<path fill-rule="nonzero" fill="rgb(25.881958%, 25.881958%, 25.881958%)" fill-opacity="0.21" d="M 85.066406 50.261719 L 70.355469 24.839844 C 67.289062 18.964844 69.570312 11.714844 75.445312 8.648438 C 75.839844 8.445312 76.246094 8.261719 76.660156 8.097656 C 84.703125 4.984375 93.058594 2.746094 101.582031 1.421875 C 108.132812 0.40625 114.265625 4.890625 115.28125 11.4375 C 115.351562 11.878906 115.394531 12.320312 115.414062 12.765625 L 115.410156 80.265625 C 115.65625 82.410156 114.246094 84.398438 112.136719 84.867188 C 111.164062 85.085938 110.195312 85.347656 109.242188 85.644531 C 107.179688 86.289062 104.964844 85.277344 104.105469 83.292969 Z M 85.066406 50.261719 "/>
<path fill-rule="nonzero" fill="rgb(25.881958%, 25.881958%, 25.881958%)" fill-opacity="0.21" d="M 124.617188 42.136719 L 124.585938 12.765625 C 124.871094 6.144531 130.46875 1.007812 137.089844 1.289062 C 137.535156 1.308594 137.976562 1.351562 138.417969 1.421875 C 146.941406 2.746094 155.296875 4.984375 163.339844 8.097656 C 169.519531 10.492188 172.589844 17.441406 170.195312 23.625 C 170.035156 24.039062 169.851562 24.445312 169.644531 24.839844 L 135.894531 83.292969 C 135.035156 85.277344 132.820312 86.289062 130.757812 85.644531 C 129.804688 85.347656 128.835938 85.085938 127.863281 84.867188 C 125.753906 84.398438 124.34375 82.410156 124.589844 80.265625 Z M 124.617188 42.136719 "/>
<path fill-rule="nonzero" fill="rgb(25.881958%, 25.881958%, 25.881958%)" fill-opacity="0.21" d="M 162.929688 54.875 L 177.589844 29.425781 C 181.144531 23.835938 188.5625 22.183594 194.152344 25.738281 C 194.53125 25.976562 194.890625 26.238281 195.238281 26.515625 C 201.957031 31.925781 208.074219 38.042969 213.484375 44.761719 C 217.636719 49.921875 216.820312 57.476562 211.660156 61.632812 C 211.3125 61.914062 210.949219 62.171875 210.574219 62.410156 L 152.117188 96.15625 C 150.382812 97.445312 147.957031 97.214844 146.492188 95.625 C 145.816406 94.890625 145.109375 94.183594 144.375 93.507812 C 142.785156 92.042969 142.554688 89.617188 143.84375 87.882812 Z M 162.929688 54.875 "/>
<path fill-rule="nonzero" fill="rgb(25.881958%, 25.881958%, 25.881958%)" fill-opacity="0.21" d="M 189.738281 85.066406 L 215.160156 70.355469 C 221.035156 67.289062 228.285156 69.570312 231.351562 75.445312 C 231.554688 75.839844 231.738281 76.246094 231.902344 76.660156 C 235.015625 84.703125 237.253906 93.058594 238.578125 101.582031 C 239.59375 108.132812 235.109375 114.265625 228.5625 115.28125 C 228.121094 115.351562 227.679688 115.394531 227.234375 115.414062 L 159.734375 115.410156 C 157.589844 115.65625 155.601562 114.246094 155.132812 112.136719 C 154.914062 111.164062 154.652344 110.195312 154.355469 109.242188 C 153.710938 107.179688 154.722656 104.964844 156.707031 104.105469 Z M 189.738281 85.066406 "/>
<path fill-rule="nonzero" fill="rgb(25.881958%, 25.881958%, 25.881958%)" fill-opacity="0.21" d="M 197.863281 124.617188 L 227.234375 124.585938 C 233.855469 124.871094 238.992188 130.46875 238.710938 137.089844 C 238.691406 137.535156 238.648438 137.976562 238.578125 138.417969 C 237.253906 146.941406 235.015625 155.296875 231.902344 163.339844 C 229.507812 169.519531 222.558594 172.589844 216.375 170.195312 C 215.960938 170.035156 215.554688 169.851562 215.160156 169.644531 L 156.707031 135.894531 C 154.722656 135.035156 153.710938 132.820312 154.355469 130.757812 C 154.652344 129.804688 154.914062 128.835938 155.132812 127.863281 C 155.601562 125.753906 157.589844 124.34375 159.734375 124.589844 Z M 197.863281 124.617188 "/>
<path fill-rule="nonzero" fill="rgb(25.881958%, 25.881958%, 25.881958%)" fill-opacity="0.21" d="M 185.125 162.929688 L 210.574219 177.589844 C 216.164062 181.144531 217.816406 188.5625 214.261719 194.152344 C 214.023438 194.53125 213.761719 194.890625 213.484375 195.238281 C 208.074219 201.957031 201.957031 208.074219 195.238281 213.484375 C 190.078125 217.636719 182.523438 216.820312 178.367188 211.660156 C 178.085938 211.3125 177.828125 210.949219 177.589844 210.574219 L 143.84375 152.117188 C 142.554688 150.382812 142.785156 147.957031 144.375 146.492188 C 145.109375 145.816406 145.816406 145.109375 146.492188 144.375 C 147.957031 142.785156 150.382812 142.554688 152.117188 143.84375 Z M 185.125 162.929688 "/>
<path fill-rule="nonzero" fill="rgb(25.881958%, 25.881958%, 25.881958%)" fill-opacity="0.21" d="M 154.933594 189.738281 L 169.644531 215.160156 C 172.710938 221.035156 170.429688 228.285156 164.554688 231.351562 C 164.160156 231.554688 163.753906 231.738281 163.339844 231.902344 C 155.296875 235.015625 146.941406 237.253906 138.417969 238.578125 C 131.867188 239.59375 125.734375 235.109375 124.71875 228.5625 C 124.648438 228.121094 124.605469 227.679688 124.585938 227.234375 L 124.589844 159.734375 C 124.34375 157.589844 125.753906 155.601562 127.863281 155.132812 C 128.835938 154.914062 129.804688 154.652344 130.757812 154.355469 C 132.820312 153.710938 135.035156 154.722656 135.894531 156.707031 Z M 154.933594 189.738281 "/>
</svg>
