<?xml version="1.0" encoding="UTF-8"?>
<svg xmlns="http://www.w3.org/2000/svg" xmlns:xlink="http://www.w3.org/1999/xlink" width="240pt" height="240pt" viewBox="0 0 240 240">
<path fill-rule="nonzero" fill="rgb(25.881958%, 25.881958%, 25.881958%)" fill-opacity="0.7002" d="M 115.382812 197.863281 L 115.414062 227.234375 C 115.128906 233.855469 109.53125 238.992188 102.910156 238.710938 C 102.464844 238.691406 102.023438 238.648438 101.582031 238.578125 C 72.035156 233.988281 45.265625 218.535156 26.515625 195.238281 C 22.363281 190.078125 23.179688 182.523438 28.339844 178.367188 C 28.6875 178.085938 29.050781 177.828125 29.425781 177.589844 L 83.5625 146.238281 C 87.363281 143.5 92.558594 143.769531 96.058594 146.886719 C 99.726562 150.152344 104.023438 152.632812 108.683594 154.175781 C 113.136719 155.648438 115.964844 160.011719 115.496094 164.675781 Z M 115.382812 197.863281 "/>
<path fill-rule="nonzero" fill="rgb(25.881958%, 25.881958%, 25.881958%)" fill-opacity="0.21" d="M 50.261719 154.933594 L 24.839844 169.644531 C 18.964844 172.710938 11.714844 170.429688 8.648438 164.554688 C 8.445312 164.160156 8.261719 163.753906 8.097656 163.339844 C -2.699219 135.457031 -2.699219 104.542969 8.097656 76.660156 C 10.492188 70.480469 17.441406 67.410156 23.625 69.804688 C 24.039062 69.964844 24.445312 70.148438 24.839844 70.355469 L 79.054688 101.5625 C 83.328125 103.488281 85.695312 108.121094 84.746094 112.710938 C 83.75 117.519531 83.75 122.480469 84.746094 127.289062 C 85.695312 131.878906 83.328125 136.511719 79.054688 138.4375 Z M 50.261719 154.933594 "/>
<path fill-rule="nonzero" fill="rgb(25.881958%, 25.881958%, 25.881958%)" fill-opacity="0.21" d="M 54.875 77.070312 L 29.425781 62.410156 C 23.835938 58.855469 22.183594 51.4375 25.738281 45.847656 C 25.976562 45.46875 26.238281 45.109375 26.515625 44.761719 C 45.265625 21.464844 72.035156 6.011719 101.582031 1.421875 C 108.132812 0.40625 114.265625 4.890625 115.28125 11.4375 C 115.351562 11.878906 115.394531 12.320312 115.414062 12.765625 L 115.496094 75.324219 C 115.964844 79.988281 113.136719 84.351562 108.683594 85.824219 C 104.023438 87.367188 99.726562 89.847656 96.058594 93.113281 C 92.558594 96.230469 87.363281 96.5 83.5625 93.761719 Z M 54.875 77.070312 "/>
<path fill-rule="nonzero" fill="rgb(25.881958%, 25.881958%, 25.881958%)" fill-opacity="0.21" d="M 124.617188 42.136719 L 124.585938 12.765625 C 124.871094 6.144531 130.46875 1.007812 137.089844 1.289062 C 137.535156 1.308594 137.976562 1.351562 138.417969 1.421875 C 167.964844 6.011719 194.734375 21.464844 213.484375 44.761719 C 217.636719 49.921875 216.820312 57.476562 211.660156 61.632812 C 211.3125 61.914062 210.949219 62.171875 210.574219 62.410156 L 156.4375 93.761719 C 152.636719 96.5 147.441406 96.230469 143.941406 93.113281 C 140.273438 89.847656 135.976562 87.367188 131.316406 85.824219 C 126.863281 84.351562 124.035156 79.988281 124.503906 75.324219 Z M 124.617188 42.136719 "/>
<path fill-rule="nonzero" fill="rgb(25.881958%, 25.881958%, 25.881958%)" fill-opacity="0.21" d="M 189.738281 85.066406 L 215.160156 70.355469 C 221.035156 67.289062 228.285156 69.570312 231.351562 75.445312 C 231.554688 75.839844 231.738281 76.246094 231.902344 76.660156 C 242.699219 104.542969 242.699219 135.457031 231.902344 163.339844 C 229.507812 169.519531 222.558594 172.589844 216.375 170.195312 C 215.960938 170.035156 215.554688 169.851562 215.160156 169.644531 L 160.945312 138.4375 C 156.671875 136.511719 154.304688 131.878906 155.253906 127.289062 C 156.25 122.480469 156.25 117.519531 155.253906 112.710938 C 154.304688 108.121094 156.671875 103.488281 160.945312 101.5625 Z M 189.738281 85.066406 "/>
<path fill-rule="nonzero" fill="rgb(25.881958%, 25.881958%, 25.881958%)" fill-opacity="0.21" d="M 185.125 162.929688 L 210.574219 177.589844 C 216.164062 181.144531 217.816406 188.5625 214.261719 194.152344 C 214.023438 194.53125 213.761719 194.890625 213.484375 195.238281 C 194.734375 218.535156 167.964844 233.988281 138.417969 238.578125 C 131.867188 239.59375 125.734375 235.109375 124.71875 228.5625 C 124.648438 228.121094 124.605469 227.679688 124.585938 227.234375 L 124.503906 164.675781 C 124.035156 160.011719 126.863281 155.648438 131.316406 154.175781 C 135.976562 152.632812 140.273438 150.152344 143.941406 146.886719 C 147.441406 143.769531 152.636719 143.5 156.4375 146.238281 Z M 185.125 162.929688 "/>
</svg>
