<?xml version="1.0" encoding="UTF-8"?>
<svg xmlns="http://www.w3.org/2000/svg" xmlns:xlink="http://www.w3.org/1999/xlink" width="240pt" height="240pt" viewBox="0 0 240 240">
<path fill-rule="nonzero" fill="rgb(25.881958%, 25.881958%, 25.881958%)" fill-opacity="0.7002" d="M 115.382812 197.863281 L 115.414062 227.234375 C 115.128906 233.855469 109.53125 238.992188 102.910156 238.710938 C 102.464844 238.691406 102.023438 238.648438 101.582031 238.578125 C 49.949219 230.558594 9.441406 190.050781 1.421875 138.417969 C 0.40625 131.867188 4.890625 125.734375 11.4375 124.71875 C 11.878906 124.648438 12.320312 124.605469 12.765625 124.585938 L 73.738281 124.46875 C 79.1875 123.941406 84.300781 127.167969 86.171875 132.308594 C 89.808594 142.3125 97.6875 150.191406 107.691406 153.828125 C 112.832031 155.699219 116.058594 160.8125 115.53125 166.261719 Z M 115.382812 197.863281 "/>
<path fill-rule="nonzero" fill="rgb(25.881958%, 25.881958%, 25.881958%)" fill-opacity="0.21" d="M 42.136719 115.382812 L 12.765625 115.414062 C 6.144531 115.128906 1.007812 109.53125 1.289062 102.910156 C 1.308594 102.464844 1.351562 102.023438 1.421875 101.582031 C 9.441406 49.949219 49.949219 9.441406 101.582031 1.421875 C 108.132812 0.40625 114.265625 4.890625 115.28125 11.4375 C 115.351562 11.878906 115.394531 12.320312 115.414062 12.765625 L 115.53125 73.738281 C 116.058594 79.1875 112.832031 84.300781 107.691406 86.171875 C 97.6875 89.808594 89.808594 97.6875 86.171875 107.691406 C 84.300781 112.832031 79.1875 116.058594 73.738281 115.53125 Z M 42.136719 115.382812 "/>
<path fill-rule="nonzero" fill="rgb(25.881958%, 25.881958%, 25.881958%)" fill-opacity="0.21" d="M 124.617188 42.136719 L 124.585938 12.765625 C 124.871094 6.144531 130.46875 1.007812 137.089844 1.289062 C 137.535156 1.308594 137.976562 1.351562 138.417969 1.421875 C 190.050781 9.441406 230.558594 49.949219 238.578125 101.582031 C 239.59375 108.132812 235.109375 114.265625 228.5625 115.28125 C 228.121094 115.351562 227.679688 115.394531 227.234375 115.414062 L 166.261719 115.53125 C 160.8125 116.058594 155.699219 112.832031 153.828125 107.691406 C 150.191406 97.6875 142.3125 89.808594 132.308594 86.171875 C 127.167969 84.300781 123.941406 79.1875 124.46875 73.738281 Z M 124.617188 42.136719 "/>
<path fill-rule="nonzero" fill="rgb(25.881958%, 25.881958%, 25.881958%)" fill-opacity="0.21" d="M 197.863281 124.617188 L 227.234375 124.585938 C 233.855469 124.871094 238.992188 130.46875 238.710938 137.089844 C 238.691406 137.535156 238.648438 137.976562 238.578125 138.417969 C 230.558594 190.050781 190.050781 230.558594 138.417969 238.578125 C 131.867188 239.59375 125.734375 235.109375 124.71875 228.5625 C 124.648438 228.121094 124.605469 227.679688 124.585938 227.234375 L 124.46875 166.261719 C 123.941406 160.8125 127.167969 155.699219 132.308594 153.828125 C 142.3125 150.191406 150.191406 142.3125 153.828125 132.308594 C 155.699219 127.167969 160.8125 123.941406 166.261719 124.46875 Z M 197.863281 124.617188 "/>
</svg>
