<?xml version="1.0" encoding="UTF-8"?>
<svg xmlns="http://www.w3.org/2000/svg" xmlns:xlink="http://www.w3.org/1999/xlink" width="240pt" height="240pt" viewBox="0 0 240 240">
<path fill-rule="nonzero" fill="rgb(25.881958%, 25.881958%, 25.881958%)" fill-opacity="0.7002" d="M 115.382812 197.863281 L 115.414062 227.234375 C 115.128906 233.855469 109.53125 238.992188 102.910156 238.710938 C 102.464844 238.691406 102.023438 238.648438 101.582031 238.578125 C 36.09375 228.40625 -8.75 167.070312 1.421875 101.582031 C 2.746094 93.058594 4.984375 84.703125 8.097656 76.660156 C 10.492188 70.480469 17.441406 67.410156 23.625 69.804688 C 24.039062 69.964844 24.445312 70.148438 24.839844 70.355469 L 77.703125 100.738281 C 82.683594 103.007812 85.5 108.355469 84.546875 113.746094 C 81.511719 130.953125 91.269531 147.855469 107.691406 153.828125 C 112.832031 155.699219 116.058594 160.8125 115.53125 166.261719 Z M 115.382812 197.863281 "/>
<path fill-rule="nonzero" fill="rgb(25.881958%, 25.881958%, 25.881958%)" fill-opacity="0.21" d="M 54.875 77.070312 L 29.425781 62.410156 C 23.835938 58.855469 22.183594 51.4375 25.738281 45.847656 C 25.976562 45.46875 26.238281 45.109375 26.515625 44.761719 C 68.070312 -6.867188 143.609375 -15.035156 195.238281 26.515625 C 201.957031 31.925781 208.074219 38.042969 213.484375 44.761719 C 217.636719 49.921875 216.820312 57.476562 211.660156 61.632812 C 211.3125 61.914062 210.949219 62.171875 210.574219 62.410156 L 157.828125 93 C 153.375 96.179688 147.335938 95.941406 143.144531 92.425781 C 129.757812 81.191406 110.242188 81.191406 96.855469 92.425781 C 92.664062 95.941406 86.625 96.179688 82.171875 93 Z M 54.875 77.070312 "/>
<path fill-rule="nonzero" fill="rgb(25.881958%, 25.881958%, 25.881958%)" fill-opacity="0.21" d="M 189.738281 85.066406 L 215.160156 70.355469 C 221.035156 67.289062 228.285156 69.570312 231.351562 75.445312 C 231.554688 75.839844 231.738281 76.246094 231.902344 76.660156 C 255.835938 138.460938 225.140625 207.964844 163.339844 231.902344 C 155.296875 235.015625 146.941406 237.253906 138.417969 238.578125 C 131.867188 239.59375 125.734375 235.109375 124.71875 228.5625 C 124.648438 228.121094 124.605469 227.679688 124.585938 227.234375 L 124.46875 166.261719 C 123.941406 160.8125 127.167969 155.699219 132.308594 153.828125 C 148.730469 147.855469 158.488281 130.953125 155.453125 113.746094 C 154.5 108.355469 157.316406 103.007812 162.296875 100.738281 Z M 189.738281 85.066406 "/>
</svg>
