<?xml version="1.0" encoding="UTF-8"?>
<svg xmlns="http://www.w3.org/2000/svg" xmlns:xlink="http://www.w3.org/1999/xlink" width="2097pt" height="1480pt" viewBox="0 0 2097 1480">
<defs>
<clipPath id="clip-0">
<path clip-rule="evenodd" d="M 1794.203125 370.492188 C 1794.203125 429.417969 1822.816406 480.71875 1865.921875 509.867188 C 1774.855469 646.097656 1646.355469 804.304688 1513.898438 850.132812 C 1339.601562 910.492188 1177.089844 539.550781 1097.09375 319.101562 C 1156.390625 296.859375 1199.585938 236.144531 1199.585938 164.125 C 1199.585938 73.542969 1131.824219 0 1048.320312 0 C 964.996094 0 897.144531 73.542969 897.144531 164.125 C 897.144531 236.144531 940.25 296.769531 999.636719 319.101562 C 919.820312 539.550781 757.488281 910.492188 582.917969 850.132812 C 450.644531 804.304688 321.875 646.097656 230.992188 509.867188 C 273.914062 480.71875 302.617188 429.507812 302.617188 370.492188 C 302.617188 279.910156 234.679688 206.277344 151.175781 206.277344 C 67.847656 206.277344 0 279.910156 0 370.492188 C 0 461.34375 67.847656 534.886719 151.175781 534.886719 C 152.882812 534.886719 359.9375 1480 359.9375 1480 L 1736.972656 1480 L 1941.328125 534.261719 C 2029.152344 534.886719 2097 461.34375 2097 370.492188 C 2096.910156 279.910156 2029.0625 206.277344 1945.824219 206.277344 C 1862.050781 206.277344 1794.203125 279.910156 1794.203125 370.492188 Z M 1794.203125 370.492188 "/>
</clipPath>
</defs>
<g clip-path="url(#clip-0)">
<rect x="-209.7" y="-148" width="2516.4" height="1776" fill="rgb(0%, 0%, 0%)" fill-opacity="1"/>
</g>
</svg>
