<?xml version="1.0" encoding="UTF-8"?>
<svg xmlns="http://www.w3.org/2000/svg" xmlns:xlink="http://www.w3.org/1999/xlink" width="1705pt" height="2003pt" viewBox="0 0 1705 2003">
<defs>
<clipPath id="clip-0">
<path clip-rule="evenodd" d="M 1325.535156 402.460938 C 1429.375 513.746094 1517.003906 631.996094 1569.777344 750.246094 C 1749.140625 1125.367188 1749.140625 1500.492188 1569.777344 1688.054688 C 1411.265625 1853.796875 1112.699219 1873.078125 921.605469 1770.53125 C 922.261719 1774.207031 922.652344 1777.96875 922.753906 1781.808594 L 928.636719 2003 L 786.183594 2003 L 780.300781 1781.808594 C 780.210938 1778.394531 780.355469 1775.035156 780.71875 1771.742188 C 589.542969 1872.921875 292.703125 1853.140625 134.832031 1688.054688 C -44.546875 1500.492188 -44.546875 1125.367188 134.832031 750.246094 C 260.386719 468.902344 583.246094 187.5625 852.296875 0 C 937.773438 59.589844 1028.683594 128.640625 1116.972656 204.152344 C 1057.484375 226.675781 1015.382812 282.40625 1015.382812 347.589844 C 1015.382812 432.695312 1087.15625 501.691406 1175.691406 501.691406 C 1244.117188 501.691406 1302.535156 460.476562 1325.535156 402.460938 Z M 1325.535156 402.460938 "/>
</clipPath>
</defs>
<g clip-path="url(#clip-0)">
<rect x="-170.5" y="-200.3" width="2046" height="2403.6" fill="rgb(0%, 0%, 0%)" fill-opacity="1"/>
</g>
</svg>
