<?xml version="1.0" encoding="UTF-8"?>
<svg xmlns="http://www.w3.org/2000/svg" xmlns:xlink="http://www.w3.org/1999/xlink" width="2098pt" height="2098pt" viewBox="0 0 2098 2098">
<defs>
<clipPath id="clip-0">
<path clip-rule="evenodd" d="M 657.847656 657.847656 L 142.554688 657.847656 C 63.933594 657.847656 0 721.679688 0 800.425781 L 0 1297.574219 C 0 1376.132812 63.824219 1440.152344 142.554688 1440.152344 L 657.847656 1440.152344 L 657.847656 1955.445312 C 657.847656 2034.066406 721.679688 2098 800.425781 2098 L 1297.574219 2098 C 1376.132812 2098 1440.152344 2034.175781 1440.152344 1955.445312 L 1440.152344 1440.152344 L 1955.445312 1440.152344 C 2034.066406 1440.152344 2098 1376.320312 2098 1297.574219 L 2098 800.425781 C 2098 721.867188 2034.175781 657.847656 1955.445312 657.847656 L 1440.152344 657.847656 L 1440.152344 142.554688 C 1440.152344 63.933594 1376.320312 0 1297.574219 0 L 800.425781 0 C 721.867188 0 657.847656 63.824219 657.847656 142.554688 Z M 657.847656 657.847656 "/>
</clipPath>
</defs>
<g clip-path="url(#clip-0)">
<rect x="-209.8" y="-209.8" width="2517.6" height="2517.6" fill="rgb(0%, 0%, 0%)" fill-opacity="1"/>
</g>
</svg>
